<svg xmlns="http://www.w3.org/2000/svg" viewBox="0 0 800 1400" width="800" height="1400">
  <defs>
    <style>
      text { font-family: 'Segoe UI', Arial, Helvetica, sans-serif; }
    </style>
    <filter id="shadow" x="-2%" y="-2%" width="104%" height="104%">
      <feDropShadow dx="0" dy="1" stdDeviation="2" flood-color="#00000020"/>
    </filter>
    <linearGradient id="bannerGrad" x1="0" y1="0" x2="1" y2="1">
      <stop offset="0%" stop-color="#F97316"/>
      <stop offset="100%" stop-color="#FB923C"/>
    </linearGradient>
  </defs>

  <!-- Background -->
  <rect width="800" height="1400" fill="#F5F5F5"/>

  <!-- ==================== STATUS BAR ==================== -->
  <rect width="800" height="28" fill="#000000"/>
  <text x="20" y="19" fill="#FFFFFF" font-size="11" font-weight="500">9:41</text>
  <text x="740" y="19" fill="#FFFFFF" font-size="11" font-weight="500">100%</text>
  <rect x="770" y="9" width="16" height="10" rx="2" fill="none" stroke="#FFFFFF" stroke-width="1"/>
  <rect x="786" y="12" width="2" height="4" rx="1" fill="#FFFFFF"/>
  <rect x="772" y="11" width="12" height="6" rx="1" fill="#FFFFFF"/>

  <!-- ==================== HEADER BAR ==================== -->
  <rect y="28" width="800" height="60" fill="#000000"/>
  <!-- Logo -->
  <rect x="20" y="40" width="36" height="36" rx="8" fill="#F97316"/>
  <text x="30" y="65" fill="#FFFFFF" font-size="20" font-weight="800">Z</text>
  <text x="64" y="66" fill="#F97316" font-size="22" font-weight="800" letter-spacing="2">ZAMMER</text>

  <!-- Search bar -->
  <rect x="220" y="42" width="340" height="34" rx="17" fill="#1A1A1A" stroke="#333333" stroke-width="1"/>
  <circle cx="242" cy="59" r="7" fill="none" stroke="#999999" stroke-width="1.5"/>
  <line x1="247" y1="64" x2="251" y2="68" stroke="#999999" stroke-width="1.5" stroke-linecap="round"/>
  <text x="258" y="63" fill="#999999" font-size="12">Search products, shops...</text>

  <!-- Bell icon -->
  <g transform="translate(590, 44)">
    <path d="M10,2 C7,2 4,5 4,8 L4,12 L2,14 L18,14 L16,12 L16,8 C16,5 13,2 10,2Z" fill="none" stroke="#FFFFFF" stroke-width="1.5"/>
    <circle cx="10" cy="17" r="1.5" fill="#FFFFFF"/>
    <circle cx="15" cy="3" r="3.5" fill="#F97316"/>
    <text x="15" y="5.5" fill="#FFFFFF" font-size="5" font-weight="700" text-anchor="middle">2</text>
  </g>

  <!-- Location pin -->
  <g transform="translate(640, 44)">
    <path d="M8,0 C3.6,0 0,3.6 0,7 C0,12 8,18 8,18 S16,12 16,7 C16,3.6 12.4,0 8,0Z" fill="none" stroke="#F97316" stroke-width="1.5"/>
    <circle cx="8" cy="7" r="2.5" fill="#F97316"/>
  </g>
  <text x="662" y="63" fill="#AAAAAA" font-size="10">Mumbai</text>

  <!-- Profile avatar -->
  <circle cx="740" cy="59" r="15" fill="#333333" stroke="#F97316" stroke-width="1.5"/>
  <circle cx="740" cy="55" r="4.5" fill="#CCCCCC"/>
  <path d="M732,68 Q740,62 748,68" fill="#CCCCCC"/>

  <!-- ==================== BANNER CAROUSEL ==================== -->
  <rect x="16" y="104" width="768" height="300" rx="16" fill="url(#bannerGrad)" filter="url(#shadow)"/>

  <!-- Decorative circles -->
  <circle cx="680" cy="180" r="80" fill="none" stroke="#FFFFFF" stroke-width="1" opacity="0.1"/>
  <circle cx="720" cy="230" r="50" fill="none" stroke="#FFFFFF" stroke-width="1" opacity="0.08"/>
  <circle cx="640" cy="280" r="30" fill="none" stroke="#FFFFFF" stroke-width="1" opacity="0.06"/>

  <!-- Banner label -->
  <rect x="32" y="120" width="180" height="22" rx="11" fill="#00000030"/>
  <text x="42" y="135" fill="#FFFFFF" font-size="10" font-weight="600" letter-spacing="1">LEVEL 1 BANNER CAROUSEL</text>

  <!-- Banner main text -->
  <text x="400" y="230" fill="#FFFFFF" font-size="32" font-weight="800" text-anchor="middle">Men / Women / Kids</text>
  <text x="400" y="265" fill="#FFFFFF" font-size="20" font-weight="600" text-anchor="middle" opacity="0.9">Fashion Collection</text>
  <text x="400" y="290" fill="#FFFFFF" font-size="12" text-anchor="middle" opacity="0.7">Auto-sliding promotional banners | Swipeable</text>

  <!-- Shop Now button -->
  <rect x="320" y="305" width="160" height="38" rx="19" fill="#000000"/>
  <text x="400" y="329" fill="#FFFFFF" font-size="13" font-weight="600" text-anchor="middle">Shop Now</text>
  <text x="430" y="329" fill="#F97316" font-size="13" font-weight="600">  &#8250;</text>

  <!-- Carousel arrows -->
  <circle cx="36" cy="254" r="16" fill="#00000040"/>
  <path d="M40,248 L34,254 L40,260" fill="none" stroke="#FFFFFF" stroke-width="2" stroke-linecap="round" stroke-linejoin="round"/>
  <circle cx="764" cy="254" r="16" fill="#00000040"/>
  <path d="M760,248 L766,254 L760,260" fill="none" stroke="#FFFFFF" stroke-width="2" stroke-linecap="round" stroke-linejoin="round"/>

  <!-- Dot indicators -->
  <circle cx="360" cy="390" r="5" fill="#F97316"/>
  <circle cx="380" cy="390" r="5" fill="#CCCCCC"/>
  <circle cx="400" cy="390" r="5" fill="#CCCCCC"/>
  <circle cx="420" cy="390" r="5" fill="#CCCCCC"/>
  <circle cx="440" cy="390" r="5" fill="#CCCCCC"/>

  <!-- ==================== SPECIAL OFFERS ==================== -->
  <text x="30" y="440" fill="#000000" font-size="20" font-weight="700">Special Offers</text>
  <rect x="690" y="424" width="80" height="24" rx="12" fill="#FFF7ED"/>
  <text x="706" y="440" fill="#F97316" font-size="12" font-weight="600">View All &#8250;</text>

  <!-- Offer Card 1 -->
  <rect x="16" y="458" width="190" height="130" rx="14" fill="#FFFFFF" filter="url(#shadow)"/>
  <rect x="16" y="458" width="190" height="4" rx="2" fill="#F97316"/>
  <rect x="30" y="476" width="50" height="22" rx="11" fill="#F97316"/>
  <text x="55" y="491" fill="#FFFFFF" font-size="9" font-weight="700" text-anchor="middle">30% OFF</text>
  <text x="111" y="504" fill="#000000" font-size="30" font-weight="800" text-anchor="middle" opacity="0.08">%</text>
  <text x="111" y="546" fill="#000000" font-size="14" font-weight="700" text-anchor="middle">Summer Sale</text>
  <text x="111" y="564" fill="#999999" font-size="10" text-anchor="middle">Limited time offer</text>
  <rect x="56" y="570" width="100" height="10" rx="5" fill="#F5F5F5"/>
  <rect x="56" y="570" width="65" height="10" rx="5" fill="#F97316" opacity="0.3"/>

  <!-- Offer Card 2 -->
  <rect x="216" y="458" width="190" height="130" rx="14" fill="#FFFFFF" filter="url(#shadow)"/>
  <rect x="216" y="458" width="190" height="4" rx="2" fill="#F97316"/>
  <rect x="230" y="476" width="50" height="22" rx="11" fill="#F97316"/>
  <text x="255" y="491" fill="#FFFFFF" font-size="9" font-weight="700" text-anchor="middle">50% OFF</text>
  <text x="311" y="546" fill="#000000" font-size="14" font-weight="700" text-anchor="middle">New Arrivals</text>
  <text x="311" y="564" fill="#999999" font-size="10" text-anchor="middle">Fresh collections</text>
  <rect x="256" y="570" width="100" height="10" rx="5" fill="#F5F5F5"/>
  <rect x="256" y="570" width="80" height="10" rx="5" fill="#F97316" opacity="0.3"/>

  <!-- Offer Card 3 -->
  <rect x="416" y="458" width="190" height="130" rx="14" fill="#FFFFFF" filter="url(#shadow)"/>
  <rect x="416" y="458" width="190" height="4" rx="2" fill="#F97316"/>
  <rect x="430" y="476" width="50" height="22" rx="11" fill="#000000"/>
  <text x="455" y="491" fill="#FFFFFF" font-size="9" font-weight="700" text-anchor="middle">BOGO</text>
  <text x="511" y="546" fill="#000000" font-size="14" font-weight="700" text-anchor="middle">Weekend Deal</text>
  <text x="511" y="564" fill="#999999" font-size="10" text-anchor="middle">Buy 1 Get 1 Free</text>
  <rect x="456" y="570" width="100" height="10" rx="5" fill="#F5F5F5"/>
  <rect x="456" y="570" width="40" height="10" rx="5" fill="#F97316" opacity="0.3"/>

  <!-- Offer Card 4 (partial - scroll hint) -->
  <rect x="616" y="458" width="190" height="130" rx="14" fill="#FFFFFF" filter="url(#shadow)" opacity="0.5"/>
  <rect x="616" y="458" width="190" height="4" rx="2" fill="#F97316" opacity="0.5"/>
  <rect x="630" y="476" width="50" height="22" rx="11" fill="#F97316" opacity="0.5"/>
  <text x="655" y="491" fill="#FFFFFF" font-size="9" font-weight="700" text-anchor="middle" opacity="0.5">20% OFF</text>

  <!-- Scroll arrow -->
  <text x="780" y="528" fill="#F97316" font-size="18" opacity="0.5">&#8250;</text>

  <!-- ==================== CATEGORIES SECTION ==================== -->
  <text x="30" y="632" fill="#000000" font-size="20" font-weight="700">Shop by Category</text>
  <rect x="690" y="616" width="80" height="24" rx="12" fill="#FFF7ED"/>
  <text x="706" y="632" fill="#F97316" font-size="12" font-weight="600">View All &#8250;</text>

  <!-- Category Row 1 -->
  <!-- Men -->
  <rect x="16" y="650" width="182" height="108" rx="14" fill="#FFFFFF" filter="url(#shadow)"/>
  <rect x="16" y="650" width="182" height="5" rx="3" fill="#F97316"/>
  <rect x="68" y="670" width="80" height="40" rx="10" fill="#FFF7ED"/>
  <text x="108" y="696" fill="#F97316" font-size="18" text-anchor="middle" font-weight="700">M</text>
  <text x="108" y="735" fill="#000000" font-size="14" font-weight="700" text-anchor="middle">Men</text>

  <!-- Women -->
  <rect x="210" y="650" width="182" height="108" rx="14" fill="#FFFFFF" filter="url(#shadow)"/>
  <rect x="210" y="650" width="182" height="5" rx="3" fill="#F97316"/>
  <rect x="262" y="670" width="80" height="40" rx="10" fill="#FFF7ED"/>
  <text x="302" y="696" fill="#F97316" font-size="18" text-anchor="middle" font-weight="700">W</text>
  <text x="302" y="735" fill="#000000" font-size="14" font-weight="700" text-anchor="middle">Women</text>

  <!-- Kids -->
  <rect x="404" y="650" width="182" height="108" rx="14" fill="#FFFFFF" filter="url(#shadow)"/>
  <rect x="404" y="650" width="182" height="5" rx="3" fill="#F97316"/>
  <rect x="456" y="670" width="80" height="40" rx="10" fill="#FFF7ED"/>
  <text x="496" y="696" fill="#F97316" font-size="18" text-anchor="middle" font-weight="700">K</text>
  <text x="496" y="735" fill="#000000" font-size="14" font-weight="700" text-anchor="middle">Kids</text>

  <!-- Footwear -->
  <rect x="598" y="650" width="182" height="108" rx="14" fill="#FFFFFF" filter="url(#shadow)"/>
  <rect x="598" y="650" width="182" height="5" rx="3" fill="#F97316"/>
  <rect x="650" y="670" width="80" height="40" rx="10" fill="#FFF7ED"/>
  <text x="690" y="696" fill="#F97316" font-size="16" text-anchor="middle" font-weight="700">FW</text>
  <text x="690" y="735" fill="#000000" font-size="14" font-weight="700" text-anchor="middle">Footwear</text>

  <!-- Category Row 2 -->
  <!-- Accessories -->
  <rect x="16" y="772" width="182" height="108" rx="14" fill="#FFFFFF" filter="url(#shadow)"/>
  <rect x="16" y="772" width="182" height="5" rx="3" fill="#F97316"/>
  <rect x="68" y="792" width="80" height="40" rx="10" fill="#FFF7ED"/>
  <text x="108" y="818" fill="#F97316" font-size="16" text-anchor="middle" font-weight="700">AC</text>
  <text x="108" y="857" fill="#000000" font-size="14" font-weight="700" text-anchor="middle">Accessories</text>

  <!-- Sports -->
  <rect x="210" y="772" width="182" height="108" rx="14" fill="#FFFFFF" filter="url(#shadow)"/>
  <rect x="210" y="772" width="182" height="5" rx="3" fill="#F97316"/>
  <rect x="262" y="792" width="80" height="40" rx="10" fill="#FFF7ED"/>
  <text x="302" y="818" fill="#F97316" font-size="16" text-anchor="middle" font-weight="700">SP</text>
  <text x="302" y="857" fill="#000000" font-size="14" font-weight="700" text-anchor="middle">Sports</text>

  <!-- Electronics -->
  <rect x="404" y="772" width="182" height="108" rx="14" fill="#FFFFFF" filter="url(#shadow)"/>
  <rect x="404" y="772" width="182" height="5" rx="3" fill="#F97316"/>
  <rect x="456" y="792" width="80" height="40" rx="10" fill="#FFF7ED"/>
  <text x="496" y="818" fill="#F97316" font-size="16" text-anchor="middle" font-weight="700">EL</text>
  <text x="496" y="857" fill="#000000" font-size="14" font-weight="700" text-anchor="middle">Electronics</text>

  <!-- Beauty -->
  <rect x="598" y="772" width="182" height="108" rx="14" fill="#FFFFFF" filter="url(#shadow)"/>
  <rect x="598" y="772" width="182" height="5" rx="3" fill="#F97316"/>
  <rect x="650" y="792" width="80" height="40" rx="10" fill="#FFF7ED"/>
  <text x="690" y="818" fill="#F97316" font-size="16" text-anchor="middle" font-weight="700">BT</text>
  <text x="690" y="857" fill="#000000" font-size="14" font-weight="700" text-anchor="middle">Beauty</text>

  <!-- ==================== NEARBY SHOPS ==================== -->
  <text x="30" y="928" fill="#000000" font-size="20" font-weight="700">Nearby Shops</text>
  <rect x="690" y="912" width="80" height="24" rx="12" fill="#FFF7ED"/>
  <text x="706" y="928" fill="#F97316" font-size="12" font-weight="600">View All &#8250;</text>

  <!-- Shop Card 1 -->
  <rect x="16" y="946" width="248" height="190" rx="14" fill="#FFFFFF" filter="url(#shadow)"/>
  <rect x="16" y="946" width="248" height="90" rx="14" fill="#F5F5F5"/>
  <rect x="16" y="1022" width="248" height="14" fill="#F5F5F5"/>
  <!-- Shop image placeholder -->
  <rect x="32" y="962" width="56" height="56" rx="10" fill="#E5E5E5"/>
  <text x="60" y="994" fill="#CCCCCC" font-size="10" text-anchor="middle">IMG</text>
  <text x="100" y="984" fill="#000000" font-size="13" font-weight="700">Fashion Hub</text>
  <!-- Rating -->
  <rect x="100" y="992" width="60" height="18" rx="9" fill="#FFF7ED"/>
  <text x="110" y="1004" fill="#F97316" font-size="10" font-weight="600">&#9733; 4.2</text>
  <text x="100" y="1024" fill="#999999" font-size="10">0.8 km away</text>
  <!-- Tags -->
  <rect x="28" y="1054" width="58" height="20" rx="10" fill="#FFF7ED"/>
  <text x="57" y="1068" fill="#F97316" font-size="9" font-weight="600" text-anchor="middle">Clothing</text>
  <rect x="94" y="1054" width="58" height="20" rx="10" fill="#FFF7ED"/>
  <text x="123" y="1068" fill="#F97316" font-size="9" font-weight="600" text-anchor="middle">Trending</text>
  <!-- Status -->
  <rect x="28" y="1084" width="8" height="8" rx="4" fill="#22C55E"/>
  <text x="42" y="1092" fill="#000000" font-size="10" font-weight="500">Open until 9:00 PM</text>
  <text x="28" y="1120" fill="#F97316" font-size="13" font-weight="700">From $299</text>

  <!-- Shop Card 2 -->
  <rect x="276" y="946" width="248" height="190" rx="14" fill="#FFFFFF" filter="url(#shadow)"/>
  <rect x="276" y="946" width="248" height="90" rx="14" fill="#F5F5F5"/>
  <rect x="276" y="1022" width="248" height="14" fill="#F5F5F5"/>
  <rect x="292" y="962" width="56" height="56" rx="10" fill="#E5E5E5"/>
  <text x="320" y="994" fill="#CCCCCC" font-size="10" text-anchor="middle">IMG</text>
  <text x="360" y="984" fill="#000000" font-size="13" font-weight="700">Style Studio</text>
  <rect x="360" y="992" width="60" height="18" rx="9" fill="#FFF7ED"/>
  <text x="370" y="1004" fill="#F97316" font-size="10" font-weight="600">&#9733; 4.8</text>
  <text x="360" y="1024" fill="#999999" font-size="10">1.2 km away</text>
  <rect x="288" y="1054" width="58" height="20" rx="10" fill="#FFF7ED"/>
  <text x="317" y="1068" fill="#F97316" font-size="9" font-weight="600" text-anchor="middle">Premium</text>
  <rect x="354" y="1054" width="42" height="20" rx="10" fill="#000000"/>
  <text x="375" y="1068" fill="#FFFFFF" font-size="9" font-weight="600" text-anchor="middle">New</text>
  <rect x="288" y="1084" width="8" height="8" rx="4" fill="#22C55E"/>
  <text x="302" y="1092" fill="#000000" font-size="10" font-weight="500">Open until 10:00 PM</text>
  <text x="288" y="1120" fill="#F97316" font-size="13" font-weight="700">From $499</text>

  <!-- Shop Card 3 -->
  <rect x="536" y="946" width="248" height="190" rx="14" fill="#FFFFFF" filter="url(#shadow)"/>
  <rect x="536" y="946" width="248" height="90" rx="14" fill="#F5F5F5"/>
  <rect x="536" y="1022" width="248" height="14" fill="#F5F5F5"/>
  <rect x="552" y="962" width="56" height="56" rx="10" fill="#E5E5E5"/>
  <text x="580" y="994" fill="#CCCCCC" font-size="10" text-anchor="middle">IMG</text>
  <text x="620" y="984" fill="#000000" font-size="13" font-weight="700">Trendy Corner</text>
  <rect x="620" y="992" width="60" height="18" rx="9" fill="#FFF7ED"/>
  <text x="630" y="1004" fill="#F97316" font-size="10" font-weight="600">&#9733; 3.5</text>
  <text x="620" y="1024" fill="#999999" font-size="10">2.0 km away</text>
  <rect x="548" y="1054" width="62" height="20" rx="10" fill="#FFF7ED"/>
  <text x="579" y="1068" fill="#F97316" font-size="9" font-weight="600" text-anchor="middle">Footwear</text>
  <rect x="548" y="1084" width="8" height="8" rx="4" fill="#F97316"/>
  <text x="562" y="1092" fill="#000000" font-size="10" font-weight="500">Closes at 8:30 PM</text>
  <text x="548" y="1120" fill="#F97316" font-size="13" font-weight="700">From $199</text>

  <!-- ==================== TRENDING NOW ==================== -->
  <text x="30" y="1184" fill="#000000" font-size="20" font-weight="700">Trending Now</text>
  <rect x="690" y="1168" width="80" height="24" rx="12" fill="#FFF7ED"/>
  <text x="706" y="1184" fill="#F97316" font-size="12" font-weight="600">View All &#8250;</text>

  <!-- Trending product cards -->
  <!-- Product 1 -->
  <rect x="16" y="1200" width="120" height="128" rx="12" fill="#FFFFFF" filter="url(#shadow)"/>
  <rect x="16" y="1200" width="120" height="76" rx="12" fill="#F5F5F5"/>
  <text x="76" y="1245" fill="#CCCCCC" font-size="10" text-anchor="middle">IMG</text>
  <text x="28" y="1296" fill="#000000" font-size="11" font-weight="600">T-Shirt</text>
  <text x="28" y="1314" fill="#F97316" font-size="13" font-weight="700">$29.99</text>
  <text x="80" y="1314" fill="#999999" font-size="9" text-decoration="line-through">$49.99</text>

  <!-- Product 2 -->
  <rect x="148" y="1200" width="120" height="128" rx="12" fill="#FFFFFF" filter="url(#shadow)"/>
  <rect x="148" y="1200" width="120" height="76" rx="12" fill="#F5F5F5"/>
  <text x="208" y="1245" fill="#CCCCCC" font-size="10" text-anchor="middle">IMG</text>
  <text x="160" y="1296" fill="#000000" font-size="11" font-weight="600">Sneakers</text>
  <text x="160" y="1314" fill="#F97316" font-size="13" font-weight="700">$89.99</text>

  <!-- Product 3 -->
  <rect x="280" y="1200" width="120" height="128" rx="12" fill="#FFFFFF" filter="url(#shadow)"/>
  <rect x="280" y="1200" width="120" height="76" rx="12" fill="#F5F5F5"/>
  <text x="340" y="1245" fill="#CCCCCC" font-size="10" text-anchor="middle">IMG</text>
  <text x="292" y="1296" fill="#000000" font-size="11" font-weight="600">Jacket</text>
  <text x="292" y="1314" fill="#F97316" font-size="13" font-weight="700">$59.99</text>

  <!-- Product 4 -->
  <rect x="412" y="1200" width="120" height="128" rx="12" fill="#FFFFFF" filter="url(#shadow)"/>
  <rect x="412" y="1200" width="120" height="76" rx="12" fill="#F5F5F5"/>
  <text x="472" y="1245" fill="#CCCCCC" font-size="10" text-anchor="middle">IMG</text>
  <text x="424" y="1296" fill="#000000" font-size="11" font-weight="600">Watch</text>
  <text x="424" y="1314" fill="#F97316" font-size="13" font-weight="700">$149.99</text>

  <!-- Product 5 -->
  <rect x="544" y="1200" width="120" height="128" rx="12" fill="#FFFFFF" filter="url(#shadow)"/>
  <rect x="544" y="1200" width="120" height="76" rx="12" fill="#F5F5F5"/>
  <text x="604" y="1245" fill="#CCCCCC" font-size="10" text-anchor="middle">IMG</text>
  <text x="556" y="1296" fill="#000000" font-size="11" font-weight="600">Bag</text>
  <text x="556" y="1314" fill="#F97316" font-size="13" font-weight="700">$39.99</text>

  <!-- Product 6 (partial) -->
  <rect x="676" y="1200" width="120" height="128" rx="12" fill="#FFFFFF" filter="url(#shadow)" opacity="0.4"/>
  <rect x="676" y="1200" width="120" height="76" rx="12" fill="#F5F5F5" opacity="0.4"/>

  <!-- ==================== BOTTOM NAVIGATION BAR ==================== -->
  <rect y="1340" width="800" height="60" fill="#FFFFFF" filter="url(#shadow)"/>
  <line x1="0" y1="1340" x2="800" y2="1340" stroke="#E5E5E5" stroke-width="1"/>

  <!-- Home (active) -->
  <g transform="translate(80, 1350)">
    <path d="M9,1.5 L1.5,7.5 L1.5,15 L6.5,15 L6.5,10.5 L11.5,10.5 L11.5,15 L16.5,15 L16.5,7.5 Z" fill="#F97316"/>
    <text x="9" y="28" fill="#F97316" font-size="10" font-weight="700" text-anchor="middle">Home</text>
    <rect x="1" y="30" width="16" height="2.5" rx="1.25" fill="#F97316"/>
  </g>

  <!-- Shop -->
  <g transform="translate(240, 1350)">
    <rect x="1" y="2" width="16" height="14" rx="2" fill="none" stroke="#999999" stroke-width="1.5"/>
    <line x1="1" y1="7" x2="17" y2="7" stroke="#999999" stroke-width="1.5"/>
    <line x1="9" y1="2" x2="9" y2="16" stroke="#999999" stroke-width="1.5"/>
    <text x="9" y="28" fill="#999999" font-size="10" font-weight="500" text-anchor="middle">Shop</text>
  </g>

  <!-- Cart -->
  <g transform="translate(400, 1352)">
    <circle cx="6" cy="15" r="1.5" fill="#999999"/>
    <circle cx="13" cy="15" r="1.5" fill="#999999"/>
    <path d="M0,0 L3,0 L5.5,11 L14,11 L16,4 L4,4" fill="none" stroke="#999999" stroke-width="1.5"/>
    <circle cx="14" cy="0" r="6" fill="#F97316"/>
    <text x="14" y="3" fill="#FFFFFF" font-size="7" font-weight="700" text-anchor="middle">3</text>
    <text x="8" y="28" fill="#999999" font-size="10" font-weight="500" text-anchor="middle">Cart</text>
  </g>

  <!-- Trending -->
  <g transform="translate(560, 1352)">
    <path d="M1,13 L5,7 L9,10 L15,1" fill="none" stroke="#999999" stroke-width="1.5" stroke-linecap="round" stroke-linejoin="round"/>
    <path d="M11,1 L15,1 L15,5" fill="none" stroke="#999999" stroke-width="1.5" stroke-linecap="round" stroke-linejoin="round"/>
    <text x="8" y="28" fill="#999999" font-size="10" font-weight="500" text-anchor="middle">Trending</text>
  </g>

  <!-- Profile -->
  <g transform="translate(720, 1352)">
    <circle cx="8" cy="5" r="4" fill="none" stroke="#999999" stroke-width="1.5"/>
    <path d="M0,16 C0,11 4,9 8,9 C12,9 16,11 16,16" fill="none" stroke="#999999" stroke-width="1.5"/>
    <text x="8" y="28" fill="#999999" font-size="10" font-weight="500" text-anchor="middle">Profile</text>
  </g>
</svg>