<svg xmlns="http://www.w3.org/2000/svg" viewBox="0 0 1200 900" width="1200" height="900">
  <defs>
    <style>
      text { font-family: 'Segoe UI', Arial, Helvetica, sans-serif; }
    </style>
    <filter id="shadow" x="-2%" y="-2%" width="104%" height="106%">
      <feDropShadow dx="0" dy="1" stdDeviation="2" flood-color="#00000015"/>
    </filter>
    <marker id="arrowOrange" markerWidth="8" markerHeight="6" refX="8" refY="3" orient="auto">
      <polygon points="0 0, 8 3, 0 6" fill="#F97316"/>
    </marker>
    <marker id="arrowBlack" markerWidth="8" markerHeight="6" refX="8" refY="3" orient="auto">
      <polygon points="0 0, 8 3, 0 6" fill="#000000"/>
    </marker>
    <marker id="arrowGray" markerWidth="8" markerHeight="6" refX="8" refY="3" orient="auto">
      <polygon points="0 0, 8 3, 0 6" fill="#999999"/>
    </marker>
  </defs>

  <!-- Background -->
  <rect width="1200" height="900" fill="#FFFFFF"/>

  <!-- ==================== TITLE BAR ==================== -->
  <rect width="1200" height="44" fill="#000000"/>
  <text x="600" y="28" fill="#F97316" font-size="16" font-weight="800" text-anchor="middle" letter-spacing="3">ZAMMER -- HOMEPAGE REDESIGN: ARCHITECTURE &amp; FLOW DIAGRAM</text>

  <!-- ==================== COLUMN HEADERS ==================== -->
  <rect x="20" y="54" width="280" height="28" rx="4" fill="#F97316"/>
  <text x="160" y="73" fill="#FFFFFF" font-size="12" font-weight="700" text-anchor="middle">BUYER NAVIGATION FLOW</text>

  <rect x="350" y="54" width="460" height="28" rx="4" fill="#000000"/>
  <text x="580" y="73" fill="#FFFFFF" font-size="12" font-weight="700" text-anchor="middle">BACKEND ARCHITECTURE</text>

  <rect x="860" y="54" width="320" height="28" rx="4" fill="#F97316"/>
  <text x="1020" y="73" fill="#FFFFFF" font-size="12" font-weight="700" text-anchor="middle">ADMIN PANEL</text>

  <!-- ================================================================ -->
  <!-- LEFT COLUMN: BUYER NAVIGATION FLOW                                -->
  <!-- ================================================================ -->

  <!-- Homepage Box -->
  <rect x="30" y="96" width="260" height="80" rx="10" fill="#FFFFFF" stroke="#F97316" stroke-width="2" filter="url(#shadow)"/>
  <rect x="30" y="96" width="260" height="26" rx="10" fill="#F97316"/>
  <rect x="30" y="112" width="260" height="10" fill="#F97316"/>
  <text x="160" y="114" fill="#FFFFFF" font-size="11" font-weight="700" text-anchor="middle">HOMEPAGE</text>
  <text x="160" y="140" fill="#000000" font-size="10" text-anchor="middle">Level 1 Banners (auto-carousel)</text>
  <text x="160" y="155" fill="#999999" font-size="9" text-anchor="middle">Men / Women / Kids sliding banners</text>
  <text x="160" y="168" fill="#999999" font-size="9" text-anchor="middle">Route: /</text>

  <!-- Arrow down -->
  <line x1="160" y1="176" x2="160" y2="200" stroke="#F97316" stroke-width="2" marker-end="url(#arrowOrange)"/>
  <text x="170" y="192" fill="#F97316" font-size="8" font-weight="600">tap banner</text>

  <!-- Level 2 Box -->
  <rect x="30" y="204" width="260" height="80" rx="10" fill="#FFFFFF" stroke="#F97316" stroke-width="2" filter="url(#shadow)"/>
  <rect x="30" y="204" width="260" height="26" rx="10" fill="#FFF7ED"/>
  <rect x="30" y="220" width="260" height="10" fill="#FFF7ED"/>
  <text x="160" y="222" fill="#F97316" font-size="11" font-weight="700" text-anchor="middle">LEVEL 2 PAGE</text>
  <text x="160" y="248" fill="#000000" font-size="10" text-anchor="middle">2-Column Poster Grid</text>
  <text x="160" y="263" fill="#999999" font-size="9" text-anchor="middle">Subcategory banners (e.g. Ethnic, Western)</text>
  <text x="160" y="276" fill="#999999" font-size="9" text-anchor="middle">Route: /category/:level1</text>

  <!-- Arrow down -->
  <line x1="160" y1="284" x2="160" y2="308" stroke="#F97316" stroke-width="2" marker-end="url(#arrowOrange)"/>
  <text x="170" y="300" fill="#F97316" font-size="8" font-weight="600">tap poster</text>

  <!-- Level 3 Box -->
  <rect x="30" y="312" width="260" height="80" rx="10" fill="#FFFFFF" stroke="#F97316" stroke-width="2" filter="url(#shadow)"/>
  <rect x="30" y="312" width="260" height="26" rx="10" fill="#FFF7ED"/>
  <rect x="30" y="328" width="260" height="10" fill="#FFF7ED"/>
  <text x="160" y="330" fill="#F97316" font-size="11" font-weight="700" text-anchor="middle">LEVEL 3 PAGE</text>
  <text x="160" y="356" fill="#000000" font-size="10" text-anchor="middle">Vertical Poster List</text>
  <text x="160" y="371" fill="#999999" font-size="9" text-anchor="middle">Sub-subcategory banners (e.g. Kurtas, Sherwanis)</text>
  <text x="160" y="384" fill="#999999" font-size="9" text-anchor="middle">Route: /category/:level1/:level2</text>

  <!-- Arrow down -->
  <line x1="160" y1="392" x2="160" y2="416" stroke="#F97316" stroke-width="2" marker-end="url(#arrowOrange)"/>
  <text x="170" y="408" fill="#F97316" font-size="8" font-weight="600">tap poster</text>

  <!-- Product Listing Box -->
  <rect x="30" y="420" width="260" height="80" rx="10" fill="#FFFFFF" stroke="#000000" stroke-width="2" filter="url(#shadow)"/>
  <rect x="30" y="420" width="260" height="26" rx="10" fill="#000000"/>
  <rect x="30" y="436" width="260" height="10" fill="#000000"/>
  <text x="160" y="438" fill="#FFFFFF" font-size="11" font-weight="700" text-anchor="middle">PRODUCT LISTING PAGE</text>
  <text x="160" y="464" fill="#000000" font-size="10" text-anchor="middle">Filtered products grid</text>
  <text x="160" y="479" fill="#999999" font-size="9" text-anchor="middle">Products matching selected category path</text>
  <text x="160" y="492" fill="#999999" font-size="9" text-anchor="middle">Route: /category/:l1/:l2/:l3</text>

  <!-- Visual hierarchy label -->
  <rect x="38" y="520" width="244" height="36" rx="6" fill="#F5F5F5" stroke="#E5E5E5" stroke-width="1"/>
  <text x="160" y="536" fill="#000000" font-size="9" font-weight="600" text-anchor="middle">NAVIGATION HIERARCHY:</text>
  <text x="160" y="548" fill="#F97316" font-size="8" font-weight="600" text-anchor="middle">L1 (Carousel) &#8594; L2 (Grid) &#8594; L3 (List) &#8594; Products</text>

  <!-- ================================================================ -->
  <!-- CENTER COLUMN: BACKEND ARCHITECTURE                               -->
  <!-- ================================================================ -->

  <!-- Banner API Endpoints Box -->
  <rect x="355" y="96" width="450" height="160" rx="10" fill="#FFFFFF" stroke="#000000" stroke-width="2" filter="url(#shadow)"/>
  <rect x="355" y="96" width="450" height="28" rx="10" fill="#000000"/>
  <rect x="355" y="114" width="450" height="10" fill="#000000"/>
  <text x="580" y="115" fill="#FFFFFF" font-size="12" font-weight="700" text-anchor="middle">BANNER API ENDPOINTS</text>

  <!-- GET -->
  <rect x="375" y="136" width="200" height="22" rx="4" fill="#F5F5F5"/>
  <rect x="375" y="136" width="36" height="22" rx="4" fill="#F97316"/>
  <text x="393" y="151" fill="#FFFFFF" font-size="9" font-weight="700" text-anchor="middle">GET</text>
  <text x="420" y="151" fill="#000000" font-size="10" font-weight="500">/api/banners</text>

  <!-- POST -->
  <rect x="375" y="164" width="200" height="22" rx="4" fill="#F5F5F5"/>
  <rect x="375" y="164" width="36" height="22" rx="4" fill="#000000"/>
  <text x="393" y="179" fill="#FFFFFF" font-size="9" font-weight="700" text-anchor="middle">POST</text>
  <text x="420" y="179" fill="#000000" font-size="10" font-weight="500">/api/banners</text>

  <!-- PUT -->
  <rect x="595" y="136" width="200" height="22" rx="4" fill="#F5F5F5"/>
  <rect x="595" y="136" width="36" height="22" rx="4" fill="#F97316"/>
  <text x="613" y="151" fill="#FFFFFF" font-size="9" font-weight="700" text-anchor="middle">PUT</text>
  <text x="640" y="151" fill="#000000" font-size="10" font-weight="500">/api/banners/:id</text>

  <!-- DELETE -->
  <rect x="595" y="164" width="200" height="22" rx="4" fill="#F5F5F5"/>
  <rect x="595" y="164" width="52" height="22" rx="4" fill="#000000"/>
  <text x="621" y="179" fill="#FFFFFF" font-size="9" font-weight="700" text-anchor="middle">DELETE</text>
  <text x="656" y="179" fill="#000000" font-size="10" font-weight="500">/api/banners/:id</text>

  <!-- Query params -->
  <text x="375" y="208" fill="#999999" font-size="9">Query params: ?level=1|2|3 &amp; categoryLevel1=... &amp; categoryLevel2=...</text>
  <text x="375" y="222" fill="#999999" font-size="9">Auth: POST/PUT/DELETE require seller/admin token</text>
  <text x="375" y="236" fill="#999999" font-size="9">Response: { success: true, banners: [...] }</text>

  <!-- Arrow down from API to MongoDB -->
  <line x1="580" y1="256" x2="580" y2="290" stroke="#000000" stroke-width="2" marker-end="url(#arrowBlack)"/>

  <!-- MongoDB Banner Model Box -->
  <rect x="390" y="294" width="380" height="150" rx="10" fill="#FFFFFF" stroke="#000000" stroke-width="2" filter="url(#shadow)"/>
  <rect x="390" y="294" width="380" height="28" rx="10" fill="#000000"/>
  <rect x="390" y="312" width="380" height="10" fill="#000000"/>
  <text x="580" y="313" fill="#FFFFFF" font-size="11" font-weight="700" text-anchor="middle">MONGODB - Banner Model</text>

  <!-- Schema fields -->
  <text x="410" y="344" fill="#000000" font-size="10" font-weight="600">Schema Fields:</text>
  <text x="410" y="360" fill="#F97316" font-size="9" font-weight="600">level</text>
  <text x="445" y="360" fill="#999999" font-size="9">: Number (1, 2, or 3)</text>
  <text x="410" y="376" fill="#F97316" font-size="9" font-weight="600">categoryLevel1</text>
  <text x="500" y="376" fill="#999999" font-size="9">: String (Men/Women/Kids)</text>
  <text x="410" y="392" fill="#F97316" font-size="9" font-weight="600">categoryLevel2</text>
  <text x="500" y="392" fill="#999999" font-size="9">: String (Ethnic/Western/...)</text>
  <text x="410" y="408" fill="#F97316" font-size="9" font-weight="600">categoryLevel3</text>
  <text x="500" y="408" fill="#999999" font-size="9">: String (Kurtas/Sherwanis/...)</text>
  <text x="410" y="424" fill="#F97316" font-size="9" font-weight="600">imageUrl</text>
  <text x="462" y="424" fill="#999999" font-size="9">: String (Cloudinary URL)</text>
  <text x="610" y="360" fill="#F97316" font-size="9" font-weight="600">title</text>
  <text x="640" y="360" fill="#999999" font-size="9">: String</text>
  <text x="610" y="376" fill="#F97316" font-size="9" font-weight="600">isActive</text>
  <text x="660" y="376" fill="#999999" font-size="9">: Boolean</text>
  <text x="610" y="392" fill="#F97316" font-size="9" font-weight="600">order</text>
  <text x="645" y="392" fill="#999999" font-size="9">: Number</text>
  <text x="610" y="408" fill="#F97316" font-size="9" font-weight="600">seller</text>
  <text x="645" y="408" fill="#999999" font-size="9">: ObjectId (ref: User)</text>
  <text x="610" y="424" fill="#F97316" font-size="9" font-weight="600">createdAt</text>
  <text x="665" y="424" fill="#999999" font-size="9">: Date</text>

  <!-- Arrow to Cloudinary -->
  <line x1="580" y1="444" x2="580" y2="478" stroke="#000000" stroke-width="2" marker-end="url(#arrowBlack)"/>

  <!-- Cloudinary CDN Box -->
  <rect x="430" y="482" width="300" height="70" rx="10" fill="#FFFFFF" stroke="#F97316" stroke-width="2" filter="url(#shadow)"/>
  <rect x="430" y="482" width="300" height="26" rx="10" fill="#F97316"/>
  <rect x="430" y="498" width="300" height="10" fill="#F97316"/>
  <text x="580" y="500" fill="#FFFFFF" font-size="11" font-weight="700" text-anchor="middle">CLOUDINARY CDN</text>
  <text x="580" y="524" fill="#000000" font-size="10" text-anchor="middle">Image Storage &amp; Optimization</text>
  <text x="580" y="540" fill="#999999" font-size="9" text-anchor="middle">Auto-resize | WebP conversion | CDN delivery</text>

  <!-- Connection arrows from backend to buyer flow -->
  <line x1="355" y1="136" x2="290" y2="136" stroke="#999999" stroke-width="1.5" stroke-dasharray="4,3" marker-end="url(#arrowGray)"/>
  <text x="310" y="130" fill="#999999" font-size="7">serves L1</text>

  <line x1="355" y1="200" x2="290" y2="244" stroke="#999999" stroke-width="1.5" stroke-dasharray="4,3" marker-end="url(#arrowGray)"/>
  <text x="308" y="222" fill="#999999" font-size="7">serves L2</text>

  <line x1="355" y1="220" x2="290" y2="352" stroke="#999999" stroke-width="1.5" stroke-dasharray="4,3" marker-end="url(#arrowGray)"/>

  <!-- ================================================================ -->
  <!-- RIGHT COLUMN: ADMIN PANEL                                         -->
  <!-- ================================================================ -->

  <!-- Banner Management Box -->
  <rect x="865" y="96" width="310" height="210" rx="10" fill="#FFFFFF" stroke="#F97316" stroke-width="2" filter="url(#shadow)"/>
  <rect x="865" y="96" width="310" height="28" rx="10" fill="#F97316"/>
  <rect x="865" y="114" width="310" height="10" fill="#F97316"/>
  <text x="1020" y="115" fill="#FFFFFF" font-size="11" font-weight="700" text-anchor="middle">BANNER MANAGEMENT</text>
  <text x="1020" y="134" fill="#999999" font-size="9" text-anchor="middle">/admin/banner-management</text>

  <!-- Tab bar -->
  <rect x="885" y="146" width="270" height="28" rx="6" fill="#F5F5F5"/>
  <rect x="885" y="146" width="90" height="28" rx="6" fill="#F97316"/>
  <text x="930" y="164" fill="#FFFFFF" font-size="10" font-weight="700" text-anchor="middle">Level 1</text>
  <rect x="975" y="146" width="90" height="28" rx="6" fill="#FFFFFF" stroke="#E5E5E5" stroke-width="1"/>
  <text x="1020" y="164" fill="#000000" font-size="10" font-weight="500" text-anchor="middle">Level 2</text>
  <rect x="1065" y="146" width="90" height="28" rx="6" fill="#FFFFFF" stroke="#E5E5E5" stroke-width="1"/>
  <text x="1110" y="164" fill="#000000" font-size="10" font-weight="500" text-anchor="middle">Level 3</text>

  <!-- Upload form mockup -->
  <rect x="885" y="186" width="270" height="28" rx="6" fill="#F5F5F5" stroke="#E5E5E5" stroke-width="1"/>
  <text x="900" y="204" fill="#999999" font-size="9">Upload Image (drag or click)</text>
  <rect x="1110" y="189" width="40" height="22" rx="4" fill="#F97316"/>
  <text x="1130" y="204" fill="#FFFFFF" font-size="8" font-weight="700" text-anchor="middle">+</text>

  <!-- Category dropdowns -->
  <rect x="885" y="222" width="130" height="24" rx="4" fill="#F5F5F5" stroke="#E5E5E5" stroke-width="1"/>
  <text x="900" y="238" fill="#999999" font-size="9">Category L1  v</text>
  <rect x="1025" y="222" width="130" height="24" rx="4" fill="#F5F5F5" stroke="#E5E5E5" stroke-width="1"/>
  <text x="1040" y="238" fill="#999999" font-size="9">Category L2  v</text>

  <!-- Title input -->
  <rect x="885" y="254" width="200" height="24" rx="4" fill="#F5F5F5" stroke="#E5E5E5" stroke-width="1"/>
  <text x="900" y="270" fill="#999999" font-size="9">Banner Title</text>

  <!-- Submit button -->
  <rect x="1095" y="254" width="60" height="24" rx="4" fill="#000000"/>
  <text x="1125" y="270" fill="#FFFFFF" font-size="9" font-weight="700" text-anchor="middle">Save</text>

  <!-- Banner list preview -->
  <rect x="865" y="320" width="310" height="110" rx="10" fill="#FFFFFF" stroke="#E5E5E5" stroke-width="1.5" filter="url(#shadow)"/>
  <rect x="865" y="320" width="310" height="24" rx="10" fill="#F5F5F5"/>
  <rect x="865" y="334" width="310" height="10" fill="#F5F5F5"/>
  <text x="1020" y="337" fill="#000000" font-size="10" font-weight="600" text-anchor="middle">Existing Banners List</text>

  <!-- Banner list items -->
  <rect x="880" y="354" width="280" height="22" rx="4" fill="#FFFFFF" stroke="#F5F5F5" stroke-width="1"/>
  <rect x="884" y="358" width="14" height="14" rx="3" fill="#F5F5F5"/>
  <text x="906" y="369" fill="#000000" font-size="9">Men - Summer Collection</text>
  <rect x="1100" y="357" width="24" height="16" rx="3" fill="#F97316" opacity="0.2"/>
  <text x="1112" y="369" fill="#F97316" font-size="8" font-weight="600" text-anchor="middle">L1</text>
  <rect x="1130" y="357" width="16" height="16" rx="3" fill="#F5F5F5"/>
  <text x="1138" y="368" fill="#999999" font-size="8" text-anchor="middle">x</text>

  <rect x="880" y="380" width="280" height="22" rx="4" fill="#FFFFFF" stroke="#F5F5F5" stroke-width="1"/>
  <rect x="884" y="384" width="14" height="14" rx="3" fill="#F5F5F5"/>
  <text x="906" y="395" fill="#000000" font-size="9">Women - Ethnic Wear</text>
  <rect x="1100" y="383" width="24" height="16" rx="3" fill="#000000" opacity="0.1"/>
  <text x="1112" y="395" fill="#000000" font-size="8" font-weight="600" text-anchor="middle">L2</text>
  <rect x="1130" y="383" width="16" height="16" rx="3" fill="#F5F5F5"/>
  <text x="1138" y="394" fill="#999999" font-size="8" text-anchor="middle">x</text>

  <rect x="880" y="406" width="280" height="22" rx="4" fill="#FFFFFF" stroke="#F5F5F5" stroke-width="1"/>
  <rect x="884" y="410" width="14" height="14" rx="3" fill="#F5F5F5"/>
  <text x="906" y="421" fill="#000000" font-size="9">Kids - Party Wear - Gowns</text>
  <rect x="1100" y="409" width="24" height="16" rx="3" fill="#000000" opacity="0.1"/>
  <text x="1112" y="421" fill="#000000" font-size="8" font-weight="600" text-anchor="middle">L3</text>
  <rect x="1130" y="409" width="16" height="16" rx="3" fill="#F5F5F5"/>
  <text x="1138" y="420" fill="#999999" font-size="8" text-anchor="middle">x</text>

  <!-- Connection arrow from admin to API -->
  <line x1="865" y1="250" x2="805" y2="180" stroke="#999999" stroke-width="1.5" stroke-dasharray="4,3" marker-end="url(#arrowGray)"/>
  <text x="820" y="208" fill="#999999" font-size="7">POST/PUT/DELETE</text>

  <!-- Connection arrow from admin to cloudinary -->
  <line x1="1020" y1="306" x2="1020" y2="470" stroke="#999999" stroke-width="1" stroke-dasharray="4,3"/>
  <line x1="1020" y1="470" x2="730" y2="510" stroke="#999999" stroke-width="1" stroke-dasharray="4,3" marker-end="url(#arrowGray)"/>
  <text x="880" y="466" fill="#999999" font-size="7">upload image</text>

  <!-- ================================================================ -->
  <!-- BOTTOM: FILE MAP                                                  -->
  <!-- ================================================================ -->

  <rect x="20" y="580" width="1160" height="300" rx="10" fill="#FFFFFF" stroke="#000000" stroke-width="2" filter="url(#shadow)"/>
  <rect x="20" y="580" width="1160" height="32" rx="10" fill="#000000"/>
  <rect x="20" y="602" width="1160" height="10" fill="#000000"/>
  <text x="600" y="601" fill="#FFFFFF" font-size="13" font-weight="700" text-anchor="middle">FILE MAP -- Implementation Overview</text>

  <!-- NEW FILES Section -->
  <rect x="40" y="626" width="360" height="240" rx="8" fill="#FFF7ED" stroke="#F97316" stroke-width="1.5"/>
  <rect x="40" y="626" width="360" height="24" rx="8" fill="#F97316"/>
  <rect x="40" y="640" width="360" height="10" fill="#F97316"/>
  <text x="220" y="644" fill="#FFFFFF" font-size="11" font-weight="700" text-anchor="middle">NEW FILES</text>

  <!-- New file entries -->
  <rect x="56" y="660" width="12" height="12" rx="2" fill="#F97316"/>
  <text x="76" y="670" fill="#000000" font-size="10" font-weight="600">Banner.js</text>
  <text x="180" y="670" fill="#999999" font-size="9">Mongoose model (backend/models/)</text>

  <rect x="56" y="684" width="12" height="12" rx="2" fill="#F97316"/>
  <text x="76" y="694" fill="#000000" font-size="10" font-weight="600">bannerController.js</text>
  <text x="210" y="694" fill="#999999" font-size="9">CRUD logic (backend/controllers/)</text>

  <rect x="56" y="708" width="12" height="12" rx="2" fill="#F97316"/>
  <text x="76" y="718" fill="#000000" font-size="10" font-weight="600">bannerRoutes.js</text>
  <text x="196" y="718" fill="#999999" font-size="9">Express routes (backend/routes/)</text>

  <rect x="56" y="732" width="12" height="12" rx="2" fill="#F97316"/>
  <text x="76" y="742" fill="#000000" font-size="10" font-weight="600">bannerService.js</text>
  <text x="196" y="742" fill="#999999" font-size="9">API calls (frontend/services/)</text>

  <rect x="56" y="756" width="12" height="12" rx="2" fill="#F97316"/>
  <text x="76" y="766" fill="#000000" font-size="10" font-weight="600">BannerManagement.js</text>
  <text x="224" y="766" fill="#999999" font-size="9">Admin UI (frontend/admin/)</text>

  <!-- File count badge -->
  <rect x="56" y="800" width="60" height="22" rx="11" fill="#F97316"/>
  <text x="86" y="815" fill="#FFFFFF" font-size="10" font-weight="700" text-anchor="middle">5 files</text>
  <text x="126" y="815" fill="#F97316" font-size="9" font-weight="600">to create</text>

  <!-- Arrow path showing file relationships -->
  <rect x="56" y="832" width="328" height="24" rx="4" fill="#F5F5F5"/>
  <text x="220" y="848" fill="#000000" font-size="8" text-anchor="middle">Routes &#8594; Controller &#8594; Model &#8594; MongoDB | Service &#8594; API &#8594; Admin UI</text>

  <!-- MODIFIED FILES Section -->
  <rect x="420" y="626" width="380" height="240" rx="8" fill="#F5F5F5" stroke="#000000" stroke-width="1.5"/>
  <rect x="420" y="626" width="380" height="24" rx="8" fill="#000000"/>
  <rect x="420" y="640" width="380" height="10" fill="#000000"/>
  <text x="610" y="644" fill="#FFFFFF" font-size="11" font-weight="700" text-anchor="middle">MODIFIED FILES</text>

  <!-- Modified file entries -->
  <rect x="436" y="660" width="12" height="12" rx="2" fill="#000000"/>
  <text x="456" y="670" fill="#000000" font-size="10" font-weight="600">app.js</text>
  <text x="500" y="670" fill="#999999" font-size="9">(backend) -- register bannerRoutes</text>

  <rect x="436" y="684" width="12" height="12" rx="2" fill="#000000"/>
  <text x="456" y="694" fill="#000000" font-size="10" font-weight="600">AdminLayout.js</text>
  <text x="562" y="694" fill="#999999" font-size="9">-- add Banner Management nav link</text>

  <rect x="436" y="708" width="12" height="12" rx="2" fill="#000000"/>
  <text x="456" y="718" fill="#000000" font-size="10" font-weight="600">App.js</text>
  <text x="502" y="718" fill="#999999" font-size="9">(frontend) -- add route for BannerManagement</text>

  <rect x="436" y="732" width="12" height="12" rx="2" fill="#000000"/>
  <text x="456" y="742" fill="#000000" font-size="10" font-weight="600">HomePage.js</text>
  <text x="542" y="742" fill="#999999" font-size="9">-- integrate banner carousel component</text>

  <rect x="436" y="756" width="12" height="12" rx="2" fill="#000000"/>
  <text x="456" y="766" fill="#000000" font-size="10" font-weight="600">HierarchicalCategoryPage.js</text>
  <text x="636" y="766" fill="#999999" font-size="9">-- L2/L3 banner display</text>

  <rect x="436" y="780" width="12" height="12" rx="2" fill="#000000"/>
  <text x="456" y="790" fill="#000000" font-size="10" font-weight="600">index.css</text>
  <text x="524" y="790" fill="#999999" font-size="9">-- carousel animations, banner styles</text>

  <!-- File count badge -->
  <rect x="436" y="800" width="60" height="22" rx="11" fill="#000000"/>
  <text x="466" y="815" fill="#FFFFFF" font-size="10" font-weight="700" text-anchor="middle">6 files</text>
  <text x="506" y="815" fill="#000000" font-size="9" font-weight="600">to modify</text>

  <!-- Change type indicators -->
  <rect x="436" y="832" width="348" height="24" rx="4" fill="#F5F5F5"/>
  <rect x="444" y="838" width="8" height="8" rx="2" fill="#F97316"/>
  <text x="458" y="848" fill="#000000" font-size="8">Route registration</text>
  <rect x="554" y="838" width="8" height="8" rx="2" fill="#000000"/>
  <text x="568" y="848" fill="#000000" font-size="8">Nav/Route changes</text>
  <rect x="664" y="838" width="8" height="8" rx="2" fill="#999999"/>
  <text x="678" y="848" fill="#000000" font-size="8">UI integration</text>

  <!-- UNCHANGED FILES Section -->
  <rect x="820" y="626" width="340" height="240" rx="8" fill="#FFFFFF" stroke="#E5E5E5" stroke-width="1.5"/>
  <rect x="820" y="626" width="340" height="24" rx="8" fill="#F5F5F5" stroke="#E5E5E5" stroke-width="1"/>
  <rect x="820" y="640" width="340" height="10" fill="#F5F5F5"/>
  <text x="990" y="644" fill="#999999" font-size="11" font-weight="700" text-anchor="middle">UNCHANGED FILES</text>

  <!-- Unchanged file entries -->
  <rect x="836" y="660" width="12" height="12" rx="2" fill="#E5E5E5"/>
  <text x="856" y="670" fill="#999999" font-size="10">categoryHierarchy.js</text>
  <text x="990" y="670" fill="#CCCCCC" font-size="9">-- existing category data</text>

  <rect x="836" y="684" width="12" height="12" rx="2" fill="#E5E5E5"/>
  <text x="856" y="694" fill="#999999" font-size="10">Product.js</text>
  <text x="920" y="694" fill="#CCCCCC" font-size="9">-- product model unchanged</text>

  <rect x="836" y="708" width="12" height="12" rx="2" fill="#E5E5E5"/>
  <text x="856" y="718" fill="#999999" font-size="10">productController.js</text>
  <text x="980" y="718" fill="#CCCCCC" font-size="9">-- no changes needed</text>

  <rect x="836" y="732" width="12" height="12" rx="2" fill="#E5E5E5"/>
  <text x="856" y="742" fill="#999999" font-size="10">shopController.js</text>
  <text x="972" y="742" fill="#CCCCCC" font-size="9">-- no changes needed</text>

  <rect x="836" y="756" width="12" height="12" rx="2" fill="#E5E5E5"/>
  <text x="856" y="766" fill="#999999" font-size="10">authMiddleware.js</text>
  <text x="976" y="766" fill="#CCCCCC" font-size="9">-- reused as-is</text>

  <rect x="836" y="780" width="12" height="12" rx="2" fill="#E5E5E5"/>
  <text x="856" y="790" fill="#999999" font-size="10">cloudinaryConfig.js</text>
  <text x="984" y="790" fill="#CCCCCC" font-size="9">-- reused as-is</text>

  <!-- File count badge -->
  <rect x="836" y="800" width="60" height="22" rx="11" fill="#E5E5E5"/>
  <text x="866" y="815" fill="#999999" font-size="10" font-weight="700" text-anchor="middle">6+</text>
  <text x="906" y="815" fill="#999999" font-size="9" font-weight="500">no changes</text>

  <rect x="836" y="832" width="308" height="24" rx="4" fill="#F5F5F5"/>
  <text x="990" y="848" fill="#999999" font-size="8" text-anchor="middle">These files are already in place and require zero modifications</text>
</svg>