<svg width="1500" height="480" viewBox="0 0 1500 480" fill="none" xmlns="http://www.w3.org/2000/svg">
<path d="M51.7241 355.099C55.8706 332.85 73.1624 322.084 87.3898 308.954C121.32 277.641 155.348 246.434 189.322 215.168C190.389 214.185 191.29 213.021 193.758 210.297C155.035 210.297 118.173 210.297 78.6172 210.297C81.8677 195.595 83.514 182.154 88.0159 169.748C91.4069 160.404 100.847 156.528 111.004 156.518C157.209 156.47 203.416 156.296 249.619 156.613C265.72 156.724 274.101 169.34 272.303 185.307C270.435 201.891 262.852 213.643 250.616 224.696C215.194 256.694 180.841 289.873 145.933 322.443C142.393 325.747 137.932 328.063 133.899 330.838C134.928 332.155 135.957 333.472 136.987 334.789C172.378 334.789 207.769 334.789 245.686 334.789C239.662 354.171 246.046 376.272 223.571 388.475C166.144 389.255 108.934 389.255 51.7241 389.255C51.7241 378.043 51.7241 367.127 51.7241 355.099Z" fill="#010101"/>
<path d="M325.627 390.282C319.96 389.915 317.923 390.282 307.994 386.756C287.587 379.508 274.627 370.439 270.886 349.152C266.606 324.794 275.383 303.66 296.652 290.604C307.153 284.157 320.311 280.311 332.659 279.012C350.833 277.1 369.357 278.519 387.648 278.519C388.919 264.097 382.984 257.689 367.692 255.191C346.568 251.741 326.576 255.835 307.056 263.581C303.824 264.864 300.679 266.365 295.623 268.588C298.274 253.943 300.351 240.673 303.31 227.603C303.913 224.937 307.438 222.047 310.277 220.909C342.274 208.093 375.048 206.685 407.801 216.988C438.702 226.71 451.245 248.137 446.248 281.443C442.082 309.214 437.103 336.868 432.157 364.515C429.819 377.58 421.716 384.26 408.602 384.506C396.514 384.732 384.419 384.554 371.951 384.554C371.951 380.351 371.951 377.014 371.951 373.554C362.282 378.362 354.061 386.158 342.085 389.107C335.78 390.659 332.106 390.702 325.627 390.282ZM354.466 311.826C347.313 313.322 339.562 313.612 333.225 316.754C329.26 318.719 324.828 325.299 325.311 329.229C325.877 333.835 330.719 339.95 335.161 341.683C351.872 348.2 365.428 340.63 376.659 328.715C380.394 324.753 382.107 318.884 385.833 311.825C373.71 311.825 365.182 311.825 354.466 311.826Z" fill="#010101"/>
<path d="M1220.95 387.931C1216.25 387.931 1197.04 386.036 1193.91 385.58C1138.91 377.56 1113.38 328.388 1134.4 277.532C1153.09 232.327 1208.56 203.252 1255.55 214.091C1294.1 222.986 1319.66 266.404 1307.94 304.102C1307.06 306.958 1301.24 309.997 1297.68 310.043C1263.2 310.488 1228.72 310.31 1194.23 310.311C1190.36 310.311 1186.49 310.311 1182.71 310.311C1180.66 327.664 1192.02 340.717 1211.43 343.312C1234.44 346.389 1256.56 342.56 1277.77 333.291C1282.03 331.426 1286.2 329.342 1290.48 327.33C1295.18 353.506 1284.43 366.771 1259.75 380.878C1247.26 385.58 1252.69 383.229 1240.94 386.755C1233.88 387.931 1230.36 387.931 1220.95 387.931ZM1194.82 264.333C1193.37 267.3 1191.92 270.267 1190.09 273.997C1213.98 273.997 1236.3 273.997 1258.59 273.997C1258.85 259.931 1252.36 251.198 1239.7 249.525C1223.25 247.351 1207.68 249.36 1194.82 264.333Z" fill="#020202"/>
<path d="M1467.08 219.387C1464.02 231.332 1460.96 242.688 1457.77 254.496C1452.82 254.496 1447.43 254.829 1442.08 254.439C1415.15 252.475 1396.44 266.643 1391.47 293.114C1386.93 317.25 1382.66 341.435 1377.97 365.54C1375.53 378.088 1367.9 384.3 1355.21 384.518C1343.51 384.718 1331.81 384.56 1318.4 384.56C1321.1 368.103 1323.5 352.55 1326.23 337.055C1332.25 302.882 1338.43 268.737 1344.54 234.581C1347.09 220.33 1353.89 213.996 1368.11 213.526C1379.43 213.151 1390.78 213.45 1402.94 213.45C1403.4 217.137 1403.8 220.417 1404.28 224.324C1405.76 223.86 1407.33 223.742 1408.43 222.962C1421.69 213.583 1436.34 208.797 1452.53 210.845C1457.02 211.413 1461.14 214.92 1466.26 217.351C1467.08 217.624 1467.08 218.8 1467.08 219.387Z" fill="#020202"/>
<path d="M865.51 282.381C860.58 310.993 856.159 338.736 850.823 366.303C848.684 377.355 840.926 384.031 829.287 384.428C817.192 384.84 805.073 384.52 791.098 384.52C794.171 365.888 797.006 348.063 800.068 330.277C805.291 299.94 810.889 269.666 815.875 239.291C819.005 220.23 826.137 213.562 845.445 213.449C855.224 213.391 865.004 213.439 875.489 213.439C876.339 216.332 877.15 219.092 878.198 222.658C912.765 202.459 942.672 206.25 966.74 240.848C982.129 226.664 999.138 215.381 1020.3 211.899C1041.39 208.43 1061.71 210.993 1080.6 220.857C1100.64 231.313 1110.85 254.798 1106.79 278.901C1102.19 306.198 1097.49 333.48 1092.75 360.753C1089.72 378.171 1081.94 384.519 1063.89 384.558C1053.75 384.58 1043.6 384.562 1031.66 384.562C1034.54 367.431 1037.22 351.151 1040.03 334.894C1042.56 320.287 1045.45 305.739 1047.72 291.094C1048.42 286.544 1048.23 281.647 1047.4 277.101C1043.46 255.516 1028.14 248.916 1008.34 258.786C987.938 268.953 985.948 288.004 982.856 306.902C979.645 326.521 976.725 346.198 972.914 365.701C970.754 376.753 963.393 383.829 951.791 384.364C938.937 384.956 926.034 384.499 912.424 384.499C917.43 355.35 922.368 327.058 927.085 298.729C928.043 292.975 928.606 287.082 928.595 281.254C928.555 259.579 912.473 248.396 892.054 256.395C880.17 261.05 870.381 268.806 865.51 282.381Z" fill="#020202"/>
<path d="M551.596 263.428C541.146 271.151 537.229 280.927 535.597 292.884C532.435 316.056 528.033 339.07 523.731 362.072C520.68 378.38 512.809 384.478 496.057 384.553C485.521 384.6 474.985 384.562 462.872 384.562C465.532 368.233 467.897 352.699 470.618 337.228C476.628 303.053 482.778 268.902 488.953 234.756C491.389 221.288 498.433 214.316 511.523 213.655C523.592 213.046 535.716 213.526 548.344 213.526C548.344 217.541 548.344 220.88 548.344 224.525C588.777 202.335 616.088 207.241 638.075 240.931C653.993 227.042 670.996 215.028 692.508 211.8C713.955 208.583 734.656 210.924 753.708 221.719C774.311 233.394 782.646 255.49 777.811 284.011C773.32 310.509 768.694 336.984 764.018 363.45C761.542 377.466 753.319 384.362 738.929 384.532C727.231 384.67 715.53 384.56 703.28 384.56C708.58 354.813 713.783 326.08 718.741 297.305C719.531 292.721 719.328 287.95 719.406 283.262C719.582 272.608 717.487 262.461 707.385 257.023C697.057 251.462 687.005 255.043 677.436 260.504C663.079 268.697 658.249 281.999 656.112 297.407C653.224 318.24 649.563 338.969 646.063 359.715C642.934 378.261 635.482 384.517 616.931 384.558C606.435 384.581 595.939 384.562 584.286 384.562C589.117 356.784 593.762 330.314 598.3 303.825C599.42 297.287 600.661 290.716 601.045 284.114C602.419 260.44 584.316 247.822 562.391 257.082C558.838 258.583 555.641 260.929 551.596 263.428Z" fill="#020202"/>
<path d="M500.205 152.993C479.794 180.085 450.368 186.191 419.127 186.938C391.029 187.61 362.798 185.63 334.833 187.668C320.694 188.699 307.015 196.031 292.443 200.958C291.76 201.402 291.842 201.504 291.842 201.504C294.725 191.591 296.365 181.094 300.71 171.87C317.793 135.601 345.831 114.918 386.922 113.643C415.056 112.77 443.264 112.42 471.277 109.977C502.429 107.261 527.421 91.9381 546.725 67.3647C547.682 66.1466 548.892 65.1206 550.041 64.0664C550.28 63.8478 550.768 63.902 552.972 63.4797C551.653 68.65 551.257 73.5169 549.243 77.581C530.922 114.537 503.026 138.039 460.128 140.139C430.846 141.572 401.489 142.302 372.338 145.13C362.251 146.108 352.686 152.462 342.401 156.552C344.446 159.909 344.812 161.041 345.182 161.042C381.958 161.17 418.764 162.065 455.496 160.818C469.151 160.354 482.634 154.861 497.605 151.905C499.412 152.431 499.809 152.712 500.205 152.993Z" fill="#FDC204"/>
</svg>
